<svg width="200" height="200" viewBox="0 0 200 200" fill="none" xmlns="http://www.w3.org/2000/svg">
<path d="M100 160C133.137 160 160 133.137 160 100C160 66.8629 133.137 40 100 40C66.8629 40 40 66.8629 40 100C40 133.137 66.8629 160 100 160Z" fill="white" stroke="#1E88E5" stroke-width="6"/>
<path d="M100 150C127.614 150 150 127.614 150 100C150 72.3858 127.614 50 100 50C72.3858 50 50 72.3858 50 100C50 127.614 72.3858 150 100 150Z" fill="#F5F9FF"/>
<path d="M100 54C102.209 54 104 52.2091 104 50C104 47.7909 102.209 46 100 46C97.7909 46 96 47.7909 96 50C96 52.2091 97.7909 54 100 54Z" fill="#1E88E5"/>
<path d="M100 154C102.209 154 104 152.209 104 150C104 147.791 102.209 146 100 146C97.7909 146 96 147.791 96 150C96 152.209 97.7909 154 100 154Z" fill="#1E88E5"/>
<path d="M50 104C52.2091 104 54 102.209 54 100C54 97.7909 52.2091 96 50 96C47.7909 96 46 97.7909 46 100C46 102.209 47.7909 104 50 104Z" fill="#1E88E5"/>
<path d="M150 104C152.209 104 154 102.209 154 100C154 97.7909 152.209 96 150 96C147.791 96 146 97.7909 146 100C146 102.209 147.791 104 150 104Z" fill="#1E88E5"/>
<path d="M143 74C144.657 74 146 72.6569 146 71C146 69.3431 144.657 68 143 68C141.343 68 140 69.3431 140 71C140 72.6569 141.343 74 143 74Z" fill="#42A5F5"/>
<path d="M143 132C144.657 132 146 130.657 146 129C146 127.343 144.657 126 143 126C141.343 126 140 127.343 140 129C140 130.657 141.343 132 143 132Z" fill="#42A5F5"/>
<path d="M57 74C58.6569 74 60 72.6569 60 71C60 69.3431 58.6569 68 57 68C55.3431 68 54 69.3431 54 71C54 72.6569 55.3431 74 57 74Z" fill="#42A5F5"/>
<path d="M57 132C58.6569 132 60 130.657 60 129C60 127.343 58.6569 126 57 126C55.3431 126 54 127.343 54 129C54 130.657 55.3431 132 57 132Z" fill="#42A5F5"/>
<path d="M100 100V60" stroke="#EF5350" stroke-width="4" stroke-linecap="round"/>
<path d="M100 100L125 95" stroke="#1E88E5" stroke-width="4" stroke-linecap="round"/>
<path d="M100 106C103.314 106 106 103.314 106 100C106 96.6863 103.314 94 100 94C96.6863 94 94 96.6863 94 100C94 103.314 96.6863 106 100 106Z" fill="#FFB300"/>
<path d="M140 40C140 33.3333 143.333 30 150 30C156.667 30 160 33.3333 160 40V45C163.333 47 165 49.6667 165 53H135C135 49.6667 136.667 47 140 45V40Z" fill="#EF5350"/>
<path d="M150 58C152.209 58 154 56.6569 154 55C154 53.3431 152.209 52 150 52C147.791 52 146 53.3431 146 55C146 56.6569 147.791 58 150 58Z" fill="#EF5350"/>
<path d="M162 44C165.314 44 168 41.3137 168 38C168 34.6863 165.314 32 162 32C158.686 32 156 34.6863 156 38C156 41.3137 158.686 44 162 44Z" fill="#FFB300"/>
<path d="M160.929 35.1818L160.818 39.2557H159.778L159.665 35.1818H160.929ZM160.298 41.0739C160.111 41.0739 159.95 41.0076 159.815 40.875C159.681 40.7405 159.615 40.5795 159.616 40.392C159.615 40.2064 159.681 40.0473 159.815 39.9148C159.95 39.7822 160.111 39.7159 160.298 39.7159C160.478 39.7159 160.636 39.7822 160.773 39.9148C160.909 40.0473 160.978 40.2064 160.98 40.392C160.978 40.517 160.945 40.6316 160.881 40.7358C160.818 40.8381 160.736 40.9205 160.634 40.983C160.531 41.0436 160.42 41.0739 160.298 41.0739Z" fill="white"/>
<path d="M57 30H33C31.3431 30 30 31.3431 30 33V55C30 56.6569 31.3431 58 33 58H57C58.6569 58 60 56.6569 60 55V33C60 31.3431 58.6569 30 57 30Z" fill="white" stroke="#42A5F5" stroke-width="2"/>
<path d="M57 30H33C31.3431 30 30 31.3431 30 33V35C30 36.6569 31.3431 38 33 38H57C58.6569 38 60 36.6569 60 35V33C60 31.3431 58.6569 30 57 30Z" fill="#42A5F5"/>
<path d="M38 27V33" stroke="#1E88E5" stroke-width="2" stroke-linecap="round"/>
<path d="M52 27V33" stroke="#1E88E5" stroke-width="2" stroke-linecap="round"/>
<path d="M40 47C41.1046 47 42 46.1046 42 45C42 43.8954 41.1046 43 40 43C38.8954 43 38 43.8954 38 45C38 46.1046 38.8954 47 40 47Z" fill="#EF5350"/>
<path d="M50 47C51.1046 47 52 46.1046 52 45C52 43.8954 51.1046 43 50 43C48.8954 43 48 43.8954 48 45C48 46.1046 48.8954 47 50 47Z" fill="#A0A0A0"/>
<path d="M40 54C41.1046 54 42 53.1046 42 52C42 50.8954 41.1046 50 40 50C38.8954 50 38 50.8954 38 52C38 53.1046 38.8954 54 40 54Z" fill="#A0A0A0"/>
<path d="M50 54C51.1046 54 52 53.1046 52 52C52 50.8954 51.1046 50 50 50C48.8954 50 48 50.8954 48 52C48 53.1046 48.8954 54 50 54Z" fill="#A0A0A0"/>
<path opacity="0.8" d="M170 103C171.657 103 173 101.657 173 100C173 98.3431 171.657 97 170 97C168.343 97 167 98.3431 167 100C167 101.657 168.343 103 170 103Z" fill="#EF5350"/>
<path opacity="0.7" d="M180 87.5C181.381 87.5 182.5 86.3807 182.5 85C182.5 83.6193 181.381 82.5 180 82.5C178.619 82.5 177.5 83.6193 177.5 85C177.5 86.3807 178.619 87.5 180 87.5Z" fill="#FFB300"/>
<path opacity="0.6" d="M165 122C166.105 122 167 121.105 167 120C167 118.895 166.105 118 165 118C163.895 118 163 118.895 163 120C163 121.105 163.895 122 165 122Z" fill="#EF5350"/>
</svg>
