<svg width="262" height="200" viewBox="0 0 262 200" fill="none" xmlns="http://www.w3.org/2000/svg">
<path d="M173 30H89C84.5817 30 81 33.5817 81 38V162C81 166.418 84.5817 170 89 170H173C177.418 170 181 166.418 181 162V38C181 33.5817 177.418 30 173 30Z" fill="white" stroke="#1E88E5" stroke-width="3"/>
<path d="M148.5 20H113.5C109.358 20 106 23.3579 106 27.5C106 31.6421 109.358 35 113.5 35H148.5C152.642 35 156 31.6421 156 27.5C156 23.3579 152.642 20 148.5 20Z" fill="#1E88E5"/>
<path d="M131 31.5C133.209 31.5 135 29.7091 135 27.5C135 25.2909 133.209 23.5 131 23.5C128.791 23.5 127 25.2909 127 27.5C127 29.7091 128.791 31.5 131 31.5Z" fill="#FFB300"/>
<path d="M110 55H102C98.6863 55 96 57.6863 96 61V69C96 72.3137 98.6863 75 102 75H110C113.314 75 116 72.3137 116 69V61C116 57.6863 113.314 55 110 55Z" fill="#66BB6A" stroke="#4CAF50" stroke-width="2"/>
<path d="M101 65L106 70L113 60" stroke="white" stroke-width="2.5" stroke-linecap="round" stroke-linejoin="round"/>
<path d="M126 65H161" stroke="#A0A0A0" stroke-width="2" stroke-linecap="round"/>
<path d="M110 85H102C98.6863 85 96 87.6863 96 91V99C96 102.314 98.6863 105 102 105H110C113.314 105 116 102.314 116 99V91C116 87.6863 113.314 85 110 85Z" fill="#66BB6A" stroke="#4CAF50" stroke-width="2"/>
<path d="M101 95L106 100L113 90" stroke="white" stroke-width="2.5" stroke-linecap="round" stroke-linejoin="round"/>
<path d="M126 95H161" stroke="#A0A0A0" stroke-width="2" stroke-linecap="round"/>
<path d="M110 115H102C98.6863 115 96 117.686 96 121V129C96 132.314 98.6863 135 102 135H110C113.314 135 116 132.314 116 129V121C116 117.686 113.314 115 110 115Z" fill="#FFB300" stroke="#FFA000" stroke-width="2"/>
<path d="M106 128C107.657 128 109 126.657 109 125C109 123.343 107.657 122 106 122C104.343 122 103 123.343 103 125C103 126.657 104.343 128 106 128Z" fill="white"/>
<path d="M126 125H161" stroke="#1E88E5" stroke-width="2" stroke-linecap="round"/>
<path d="M110 145H102C98.6863 145 96 147.686 96 151V159C96 162.314 98.6863 165 102 165H110C113.314 165 116 162.314 116 159V151C116 147.686 113.314 145 110 145Z" fill="white" stroke="#E0E0E0" stroke-width="2"/>
<path d="M126 155H161" stroke="#D0D0D0" stroke-width="2" stroke-linecap="round"/>
<path opacity="0.7" d="M186 74C188.209 74 190 72.2091 190 70C190 67.7909 188.209 66 186 66C183.791 66 182 67.7909 182 70C182 72.2091 183.791 74 186 74Z" fill="#FFB300"/>
<path opacity="0.6" d="M76 103C77.6569 103 79 101.657 79 100C79 98.3431 77.6569 97 76 97C74.3431 97 73 98.3431 73 100C73 101.657 74.3431 103 76 103Z" fill="#42A5F5"/>
<path opacity="0.7" d="M191 133.5C192.933 133.5 194.5 131.933 194.5 130C194.5 128.067 192.933 126.5 191 126.5C189.067 126.5 187.5 128.067 187.5 130C187.5 131.933 189.067 133.5 191 133.5Z" fill="#66BB6A"/>
<path d="M186.732 123.679L183.268 121.679C182.311 121.127 181.088 121.455 180.536 122.411L162.536 153.588C161.984 154.545 162.311 155.768 163.268 156.32L166.732 158.32C167.689 158.873 168.912 158.545 169.464 157.588L187.464 126.411C188.016 125.455 187.689 124.232 186.732 123.679Z" fill="#FFB300"/>
<path d="M186 145L179 138L183 134L190 141L186 145Z" fill="#FFA000"/>
<path d="M187 144C188.105 144 189 143.105 189 142C189 140.895 188.105 140 187 140C185.895 140 185 140.895 185 142C185 143.105 185.895 144 187 144Z" fill="#4A4A4A"/>
</svg>
