<svg width="262" height="200" viewBox="0 0 262 200" fill="none" xmlns="http://www.w3.org/2000/svg">
<path opacity="0.3" d="M131 163C150.33 163 166 159.418 166 155C166 150.582 150.33 147 131 147C111.67 147 96 150.582 96 155C96 159.418 111.67 163 131 163Z" fill="#1E88E5"/>
<path d="M144 145H118C116.895 145 116 145.895 116 147V153C116 154.105 116.895 155 118 155H144C145.105 155 146 154.105 146 153V147C146 145.895 145.105 145 144 145Z" fill="#1E88E5"/>
<path d="M148 135H114C112.343 135 111 136.343 111 138V144C111 145.657 112.343 147 114 147H148C149.657 147 151 145.657 151 144V138C151 136.343 149.657 135 148 135Z" fill="#42A5F5"/>
<path d="M101 80L106 130H156L161 80H101Z" fill="#FFB300"/>
<path d="M131 88C147.569 88 161 84.4183 161 80C161 75.5817 147.569 72 131 72C114.431 72 101 75.5817 101 80C101 84.4183 114.431 88 131 88Z" fill="#FFA000"/>
<path d="M131 86C144.807 86 156 83.3137 156 80C156 76.6863 144.807 74 131 74C117.193 74 106 76.6863 106 80C106 83.3137 117.193 86 131 86Z" fill="#FFD54F"/>
<path d="M101 85C87.6667 85 81 90 81 100C81 106.667 84.3333 110 91 110L101 100" stroke="#FFB300" stroke-width="6"/>
<path d="M161 85C174.333 85 181 90 181 100C181 106.667 177.667 110 171 110L161 100" stroke="#FFB300" stroke-width="6"/>
<path d="M131 88L134 97H143L136 103L139 112L131 106L123 112L126 103L119 97H128L131 88Z" fill="white"/>
<path opacity="0.8" d="M81 52L83 58H89L84 62L86 68L81 64L76 68L78 62L73 58H79L81 52Z" fill="#FFB300"/>
<path opacity="0.8" d="M186 65L188.5 72.5H196L190 77.5L192 85L186 80L180 85L182 77.5L176 72.5H183.5L186 65Z" fill="#42A5F5"/>
<path opacity="0.7" d="M171 39L172.5 43.5H177L173.5 46.5L175 51L171 48L167 51L168.5 46.5L165 43.5H169.5L171 39Z" fill="#FFB300"/>
<path opacity="0.7" d="M76.2475 52.9253C76.6252 51.8874 76.0901 50.7397 75.0521 50.3619C74.0142 49.9841 72.8665 50.5193 72.4887 51.5572L69.7525 59.0748C69.3747 60.1127 69.9099 61.2604 70.9479 61.6382C71.9858 62.016 73.1335 61.4808 73.5113 60.4429L76.2475 52.9253Z" fill="#EF5350"/>
<path opacity="0.7" d="M194.155 101.585C193.87 100.518 192.773 99.8845 191.706 100.17C190.639 100.456 190.006 101.553 190.292 102.62L191.845 108.415C192.13 109.482 193.227 110.115 194.294 109.83C195.361 109.544 195.994 108.447 195.708 107.38L194.155 101.585Z" fill="#66BB6A"/>
<path opacity="0.6" d="M66 93C67.6569 93 69 91.6569 69 90C69 88.3431 67.6569 87 66 87C64.3431 87 63 88.3431 63 90C63 91.6569 64.3431 93 66 93Z" fill="#42A5F5"/>
<path opacity="0.7" d="M201 122.5C202.381 122.5 203.5 121.381 203.5 120C203.5 118.619 202.381 117.5 201 117.5C199.619 117.5 198.5 118.619 198.5 120C198.5 121.381 199.619 122.5 201 122.5Z" fill="#FFB300"/>
<path opacity="0.5" d="M82 135H78C76.8954 135 76 135.895 76 137V148C76 149.105 76.8954 150 78 150H82C83.1046 150 84 149.105 84 148V137C84 135.895 83.1046 135 82 135Z" fill="#42A5F5"/>
<path opacity="0.6" d="M94 130H90C88.8954 130 88 130.895 88 132V148C88 149.105 88.8954 150 90 150H94C95.1046 150 96 149.105 96 148V132C96 130.895 95.1046 130 94 130Z" fill="#42A5F5"/>
<path opacity="0.7" d="M106 125H102C100.895 125 100 125.895 100 127V148C100 149.105 100.895 150 102 150H106C107.105 150 108 149.105 108 148V127C108 125.895 107.105 125 106 125Z" fill="#66BB6A"/>
<path opacity="0.8" d="M131 53C132.657 53 134 51.6569 134 50C134 48.3431 132.657 47 131 47C129.343 47 128 48.3431 128 50C128 51.6569 129.343 53 131 53Z" fill="#FFB300"/>
<path opacity="0.9" d="M146 62C147.105 62 148 61.1046 148 60C148 58.8954 147.105 58 146 58C144.895 58 144 58.8954 144 60C144 61.1046 144.895 62 146 62Z" fill="white"/>
<path opacity="0.7" d="M116 57.5C117.381 57.5 118.5 56.3807 118.5 55C118.5 53.6193 117.381 52.5 116 52.5C114.619 52.5 113.5 53.6193 113.5 55C113.5 56.3807 114.619 57.5 116 57.5Z" fill="#42A5F5"/>
</svg>
